# Blender v2.78 (sub 0) OBJ File: 'Bench.blend'
# www.blender.org
mtllib Bench OBJ.mtl
o Cube
v -0.856550 0.473142 0.205932
v -0.856550 0.511775 0.205932
v -0.856552 0.473142 -0.205927
v -0.856552 0.511775 -0.205927
v 1.050619 0.474001 0.196774
v 1.050619 0.510916 0.196774
v 1.050618 0.474001 -0.196781
v 1.050618 0.510916 -0.196781
v 1.047863 0.512135 -0.209776
v 1.047863 0.472782 -0.209776
v 1.047864 0.512135 0.209770
v 1.047864 0.472782 0.209770
v -0.854009 0.472782 -0.209770
v -0.854007 0.512135 0.209775
v -0.854009 0.512135 -0.209770
v -0.854007 0.472782 0.209775
v 0.832689 -0.004332 0.227048
v 0.805676 0.495518 0.167039
v 0.832688 -0.004332 -0.223860
v 0.805675 0.495518 -0.163851
v 0.879276 -0.004332 0.227048
v 0.852263 0.495518 0.167038
v 0.879274 -0.004332 -0.223861
v 0.852262 0.495518 -0.163851
v 0.805676 0.495518 0.076326
v 0.832689 -0.004332 0.103433
v 0.852262 0.495518 0.076326
v 0.879275 -0.004332 0.103433
v 0.805675 0.495518 -0.062829
v 0.879275 -0.004332 -0.086196
v 0.832688 -0.004332 -0.086196
v 0.852262 0.495518 -0.062829
v 0.832688 0.013104 -0.048270
v 0.832688 0.022092 -0.010344
v 0.832688 0.022092 0.027581
v 0.832688 0.013104 0.065507
v 0.852262 0.495518 -0.034998
v 0.852262 0.495518 -0.007167
v 0.852262 0.495518 0.020664
v 0.852262 0.495518 0.048495
v 0.805676 0.495518 0.048495
v 0.805676 0.495518 0.020664
v 0.805675 0.495518 -0.007167
v 0.805675 0.495518 -0.034998
v 0.879275 0.013104 0.065507
v 0.879275 0.022092 0.027581
v 0.879275 0.022092 -0.010344
v 0.879275 0.013104 -0.048270
v 0.805675 0.515285 -0.062829
v 0.805675 0.515285 -0.163851
v 0.852262 0.515285 -0.163851
v 0.852262 0.515285 0.076326
v 0.852263 0.515285 0.167038
v 0.805676 0.515285 0.167039
v 0.805676 0.515285 0.076326
v 0.852262 0.515285 -0.062829
v -0.664630 -0.004332 0.227052
v -0.640294 0.495518 0.167043
v -0.664631 -0.004332 -0.223856
v -0.640295 0.495518 -0.163847
v -0.618043 -0.004332 0.227052
v -0.593708 0.495518 0.167043
v -0.618044 -0.004332 -0.223856
v -0.593709 0.495518 -0.163847
v -0.640295 0.495518 0.076331
v -0.664630 -0.004332 0.103437
v -0.593708 0.495518 0.076331
v -0.618043 -0.004332 0.103437
v -0.640295 0.495518 -0.062824
v -0.618044 -0.004332 -0.086191
v -0.664630 -0.004332 -0.086191
v -0.593708 0.495518 -0.062825
v -0.664630 0.013104 -0.048265
v -0.664630 0.022092 -0.010340
v -0.664630 0.022092 0.027586
v -0.664630 0.013104 0.065512
v -0.593708 0.495518 -0.034993
v -0.593708 0.495518 -0.007162
v -0.593708 0.495518 0.020669
v -0.593708 0.495518 0.048500
v -0.640295 0.495518 0.048500
v -0.640295 0.495518 0.020669
v -0.640295 0.495518 -0.007162
v -0.640295 0.495518 -0.034993
v -0.618043 0.013104 0.065512
v -0.618043 0.022092 0.027586
v -0.618043 0.022092 -0.010340
v -0.618043 0.013104 -0.048266
v -0.640295 0.515285 -0.062824
v -0.640295 0.515285 -0.163847
v -0.593709 0.515285 -0.163847
v -0.593708 0.515285 0.076331
v -0.593708 0.515285 0.167043
v -0.640294 0.515285 0.167043
v -0.640295 0.515285 0.076331
v -0.593708 0.515285 -0.062825
v -0.735945 0.204047 0.035428
v -0.724212 0.320735 0.029561
v -0.735945 0.204047 -0.015656
v -0.724212 0.320735 -0.009789
v 0.943658 0.204047 0.035423
v 0.929835 0.320735 0.032063
v 0.943658 0.204047 -0.015661
v 0.929835 0.320735 -0.012302
v 0.931953 0.317645 -0.010436
v 0.944613 0.207779 -0.013513
v 0.931953 0.317645 0.030198
v 0.944613 0.207779 0.033275
v -0.737226 0.207955 0.032322
v -0.727661 0.316826 0.027168
v -0.727662 0.316826 -0.007396
v -0.737226 0.207955 -0.012550
vt 0.8249 0.8747
vt 0.5929 0.8747
vt 0.5929 0.8447
vt 0.8249 0.8447
vt 0.9930 0.0004
vt 0.9921 0.0077
vt 0.9634 0.0077
vt 0.9624 0.0004
vt 0.9921 0.2294
vt 0.9634 0.2294
vt 0.8271 0.8750
vt 0.8271 0.8444
vt 0.9624 0.2367
vt 0.5908 0.8750
vt 0.9930 0.2367
vt 0.0004 0.0004
vt 0.2579 0.0004
vt 0.2579 0.8981
vt 0.0004 0.8981
vt 0.9181 0.8620
vt 0.9181 0.0004
vt 0.9395 0.0004
vt 0.9395 0.8620
vt 0.5908 0.8444
vt 0.5163 0.8981
vt 0.2587 0.8981
vt 0.2587 0.0004
vt 0.5163 0.0004
vt 0.9616 0.0004
vt 0.9616 0.8620
vt 0.9403 0.8620
vt 0.9403 0.0004
vt 0.6741 0.6432
vt 0.6741 0.6005
vt 0.9173 0.5751
vt 0.9173 0.6333
vt 0.9624 0.5068
vt 0.9740 0.5068
vt 0.9743 0.7645
vt 0.9627 0.7645
vt 0.6741 0.2557
vt 0.6741 0.2174
vt 0.9173 0.1920
vt 0.9173 0.2443
vt 0.9763 0.4958
vt 0.9624 0.4958
vt 0.9624 0.2375
vt 0.9763 0.2375
vt 0.5753 0.8444
vt 0.5753 0.8760
vt 0.5564 0.8760
vt 0.5564 0.8444
vt 0.6645 0.2557
vt 0.6645 0.2174
vt 0.9627 0.4966
vt 0.9743 0.4966
vt 0.9040 0.8744
vt 0.9040 0.9028
vt 0.8851 0.9028
vt 0.8851 0.8744
vt 0.6741 0.2675
vt 0.9089 0.2603
vt 0.6741 0.7405
vt 0.6741 0.7021
vt 0.9173 0.7136
vt 0.9173 0.7659
vt 0.6741 0.3574
vt 0.6741 0.3146
vt 0.9173 0.3245
vt 0.9173 0.3827
vt 0.5367 0.8508
vt 0.5367 0.8444
vt 0.5556 0.8444
vt 0.5556 0.8508
vt 0.7571 0.8101
vt 0.7571 0.7667
vt 0.7760 0.7667
vt 0.7760 0.8101
vt 0.6741 0.6550
vt 0.9089 0.6494
vt 0.6741 0.6903
vt 0.9089 0.6975
vt 0.6741 0.6786
vt 0.9045 0.6815
vt 0.6741 0.6668
vt 0.9045 0.6654
vt 0.8153 0.7667
vt 0.8153 0.8100
vt 0.7964 0.8100
vt 0.7964 0.7667
vt 0.8153 0.8328
vt 0.7964 0.8328
vt 0.8153 0.8336
vt 0.8153 0.8423
vt 0.7964 0.8423
vt 0.7964 0.8336
vt 0.7571 0.8331
vt 0.7760 0.8331
vt 0.5367 0.8763
vt 0.5367 0.8699
vt 0.5556 0.8699
vt 0.5556 0.8763
vt 0.5367 0.8635
vt 0.5556 0.8635
vt 0.5367 0.8572
vt 0.5556 0.8572
vt 0.6741 0.3028
vt 0.9089 0.3084
vt 0.6741 0.2911
vt 0.9045 0.2924
vt 0.6741 0.2793
vt 0.9045 0.2764
vt 0.9048 0.8976
vt 0.9048 0.8744
vt 0.9236 0.8744
vt 0.9236 0.8976
vt 0.5908 0.8966
vt 0.5908 0.8758
vt 0.6096 0.8758
vt 0.6096 0.8966
vt 0.8546 0.8147
vt 0.8358 0.8147
vt 0.8358 0.7667
vt 0.8546 0.7667
vt 0.9173 0.7667
vt 0.9173 0.8736
vt 0.8851 0.8736
vt 0.8851 0.7667
vt 0.6645 0.3574
vt 0.6645 0.3146
vt 0.6645 0.7405
vt 0.6645 0.7021
vt 0.6645 0.6432
vt 0.6645 0.6005
vt 0.8554 0.8153
vt 0.8743 0.8153
vt 0.8743 0.8631
vt 0.8554 0.8631
vt 0.6741 0.4517
vt 0.6741 0.4089
vt 0.9173 0.3835
vt 0.9173 0.4418
vt 0.9867 0.7543
vt 0.9751 0.7543
vt 0.9753 0.4966
vt 0.9869 0.4966
vt 0.6741 0.0642
vt 0.6741 0.0258
vt 0.9173 0.0004
vt 0.9173 0.0527
vt 0.9877 0.5068
vt 0.9994 0.5068
vt 0.9996 0.7634
vt 0.9880 0.7634
vt 0.8743 0.8639
vt 0.8743 0.8955
vt 0.8554 0.8955
vt 0.8554 0.8639
vt 0.6645 0.0642
vt 0.6645 0.0258
vt 0.9869 0.7645
vt 0.9753 0.7645
vt 0.8546 0.8643
vt 0.8546 0.8926
vt 0.8358 0.8926
vt 0.8358 0.8643
vt 0.6741 0.0759
vt 0.9089 0.0687
vt 0.6741 0.5489
vt 0.6741 0.5105
vt 0.9173 0.5220
vt 0.9173 0.5743
vt 0.6741 0.1658
vt 0.6741 0.1230
vt 0.9173 0.1329
vt 0.9173 0.1912
vt 0.5171 0.8508
vt 0.5171 0.8444
vt 0.5360 0.8444
vt 0.5360 0.8508
vt 0.7768 0.8101
vt 0.7768 0.7667
vt 0.7956 0.7667
vt 0.7956 0.8101
vt 0.6741 0.4634
vt 0.9089 0.4578
vt 0.6741 0.4988
vt 0.9089 0.5060
vt 0.6741 0.4870
vt 0.9045 0.4899
vt 0.6741 0.4752
vt 0.9045 0.4739
vt 0.8350 0.7667
vt 0.8350 0.8100
vt 0.8161 0.8100
vt 0.8161 0.7667
vt 0.8350 0.8328
vt 0.8161 0.8328
vt 0.8350 0.8336
vt 0.8350 0.8423
vt 0.8161 0.8423
vt 0.8161 0.8336
vt 0.7768 0.8331
vt 0.7956 0.8331
vt 0.5171 0.8763
vt 0.5171 0.8699
vt 0.5360 0.8699
vt 0.5360 0.8763
vt 0.5171 0.8635
vt 0.5360 0.8635
vt 0.5171 0.8572
vt 0.5360 0.8572
vt 0.6741 0.1113
vt 0.9089 0.1169
vt 0.6741 0.0995
vt 0.9045 0.1008
vt 0.6741 0.0877
vt 0.9045 0.0848
vt 0.8554 0.9194
vt 0.8554 0.8963
vt 0.8743 0.8963
vt 0.8743 0.9194
vt 0.6104 0.8966
vt 0.6104 0.8758
vt 0.6293 0.8758
vt 0.6293 0.8966
vt 0.8358 0.8155
vt 0.8546 0.8155
vt 0.8546 0.8635
vt 0.8358 0.8635
vt 0.8743 0.8145
vt 0.8554 0.8145
vt 0.8554 0.7667
vt 0.8743 0.7667
vt 0.6645 0.1658
vt 0.6645 0.1230
vt 0.6645 0.5489
vt 0.6645 0.5105
vt 0.6645 0.4517
vt 0.6645 0.4089
vt 0.9880 0.4966
vt 0.9996 0.4966
vt 0.7563 0.8024
vt 0.7563 0.8373
vt 0.7532 0.8352
vt 0.7532 0.8045
vt 0.5171 0.8377
vt 0.5171 0.0073
vt 0.5900 0.0004
vt 0.5900 0.8436
vt 0.6645 0.7993
vt 0.6645 0.7690
vt 0.6669 0.7702
vt 0.6669 0.7980
vt 0.6637 0.0073
vt 0.6637 0.8377
vt 0.5908 0.8436
vt 0.5908 0.0004
vt 0.0004 0.9244
vt 0.0004 0.8989
vt 0.8531 0.8989
vt 0.8531 0.9244
vt 0.8401 0.9252
vt 0.8401 0.9474
vt 0.0004 0.9461
vt 0.0004 0.9265
vt 0.7534 0.7681
vt 0.7534 0.8001
vt 0.7563 0.8016
vt 0.7563 0.7667
vt 0.6675 0.8316
vt 0.6675 0.8080
vt 0.6645 0.8333
vt 0.6645 0.8064
vn -1.0000 0.0000 0.0000
vn 0.9783 0.0000 -0.2074
vn 1.0000 0.0000 -0.0000
vn -0.8339 0.0000 0.5519
vn 0.4046 -0.9145 -0.0000
vn -0.1404 0.9901 0.0000
vn 0.4046 0.9145 -0.0000
vn 0.0000 -1.0000 0.0000
vn 0.9783 0.0000 0.2074
vn -0.0000 0.0000 -1.0000
vn -0.8340 0.0000 -0.5518
vn -0.1404 -0.9901 0.0000
vn 0.0000 1.0000 -0.0000
vn 0.0000 0.0000 1.0000
vn -0.9985 -0.0540 0.0000
vn -0.0000 0.1192 -0.9929
vn 0.9985 0.0540 -0.0000
vn 0.0000 0.1192 0.9929
vn 0.9983 0.0556 0.0147
vn 0.0000 -0.9086 0.4177
vn -0.9984 -0.0555 0.0147
vn -0.9983 -0.0556 -0.0147
vn -0.9984 -0.0566 -0.0077
vn -0.9984 -0.0570 0.0000
vn -0.9984 -0.0566 0.0077
vn -0.0000 -0.9086 -0.4177
vn -0.0000 -0.9730 -0.2306
vn 0.0000 -0.9730 0.2306
vn 0.9984 0.0555 -0.0147
vn 0.9984 0.0566 -0.0077
vn 0.9984 0.0570 -0.0000
vn 0.9984 0.0566 0.0077
vn -0.9988 0.0486 0.0000
vn 0.9988 -0.0486 -0.0000
vn 0.9987 -0.0501 -0.0133
vn -0.9987 0.0500 -0.0132
vn -0.9987 0.0501 0.0133
vn -0.9987 0.0510 0.0070
vn -0.9987 0.0513 0.0000
vn -0.9987 0.0510 -0.0070
vn 0.9987 -0.0500 0.0132
vn 0.9987 -0.0510 0.0070
vn 0.9987 -0.0513 -0.0000
vn 0.9987 -0.0510 -0.0070
vn -0.9503 -0.3114 0.0000
vn -0.0008 0.0395 -0.9992
vn 0.8249 0.5653 -0.0000
vn -0.0007 0.0395 0.9992
vn 0.9934 0.1145 -0.0000
vn 0.7808 0.1088 -0.6152
vn 0.7808 0.1088 0.6152
vn 0.9688 -0.2480 -0.0000
vn -0.9962 0.0875 0.0000
vn -0.7498 0.6617 0.0000
vn -0.7541 0.1029 -0.6486
vn -0.7541 0.1029 0.6486
usemtl Bench
s off
f 2/1/1 4/2/1 3/3/1 1/4/1
f 9/5/2 8/6/2 7/7/2 10/8/2
f 8/6/3 6/9/3 5/10/3 7/7/3
f 14/11/4 2/1/4 1/4/4 16/12/4
f 12/13/5 10/8/5 7/7/5 5/10/5
f 14/11/6 15/14/6 4/2/6 2/1/6
f 6/9/7 8/6/7 9/5/7 11/15/7
f 16/16/8 13/17/8 10/18/8 12/19/8
f 6/9/9 11/15/9 12/13/9 5/10/9
f 15/20/10 9/21/10 10/22/10 13/23/10
f 4/2/11 15/14/11 13/24/11 3/3/11
f 1/4/12 3/3/12 13/24/12 16/12/12
f 11/25/13 9/26/13 15/27/13 14/28/13
f 11/29/14 14/30/14 16/31/14 12/32/14
f 29/33/15 20/34/15 19/35/15 31/36/15
f 20/37/16 24/38/16 23/39/16 19/40/16
f 27/41/17 22/42/17 21/43/17 28/44/17
f 22/45/18 18/46/18 17/47/18 21/48/18
f 31/49/8 19/50/8 23/51/8 30/52/8
f 22/42/3 27/41/3 52/53/3 53/54/3
f 24/38/10 20/37/10 50/55/10 51/56/10
f 17/57/8 26/58/8 28/59/8 21/60/8
f 40/61/19 27/41/19 28/44/19 45/62/19
f 18/63/15 25/64/15 26/65/15 17/66/15
f 24/67/17 32/68/17 30/69/17 23/70/17
f 37/71/13 32/72/13 29/73/13 44/74/13
f 33/75/20 31/76/20 30/77/20 48/78/20
f 44/79/21 29/33/21 31/36/21 33/80/21
f 25/64/22 41/81/22 36/82/22 26/65/22
f 41/81/23 42/83/23 35/84/23 36/82/23
f 42/83/24 43/85/24 34/86/24 35/84/24
f 43/85/25 44/79/25 33/80/25 34/86/25
f 26/87/26 36/88/26 45/89/26 28/90/26
f 36/88/27 35/91/27 46/92/27 45/89/27
f 35/93/8 34/94/8 47/95/8 46/96/8
f 34/97/28 33/75/28 48/78/28 47/98/28
f 27/99/13 40/100/13 41/101/13 25/102/13
f 40/100/13 39/103/13 42/104/13 41/101/13
f 39/103/13 38/105/13 43/106/13 42/104/13
f 38/105/13 37/71/13 44/74/13 43/106/13
f 32/68/29 37/107/29 48/108/29 30/69/29
f 37/107/30 38/109/30 47/110/30 48/108/30
f 38/109/31 39/111/31 46/112/31 47/110/31
f 39/111/32 40/61/32 45/62/32 46/112/32
f 56/113/13 51/114/13 50/115/13 49/116/13
f 53/117/13 52/118/13 55/119/13 54/120/13
f 27/121/10 25/122/10 55/123/10 52/124/10
f 29/125/14 32/126/14 56/127/14 49/128/14
f 32/68/3 24/67/3 51/129/3 56/130/3
f 25/64/1 18/63/1 54/131/1 55/132/1
f 20/34/1 29/33/1 49/133/1 50/134/1
f 18/135/14 22/136/14 53/137/14 54/138/14
f 69/139/33 60/140/33 59/141/33 71/142/33
f 60/143/16 64/144/16 63/145/16 59/146/16
f 67/147/34 62/148/34 61/149/34 68/150/34
f 62/151/18 58/152/18 57/153/18 61/154/18
f 71/155/8 59/156/8 63/157/8 70/158/8
f 62/148/3 67/147/3 92/159/3 93/160/3
f 64/144/10 60/143/10 90/161/10 91/162/10
f 57/163/8 66/164/8 68/165/8 61/166/8
f 80/167/35 67/147/35 68/150/35 85/168/35
f 58/169/33 65/170/33 66/171/33 57/172/33
f 64/173/34 72/174/34 70/175/34 63/176/34
f 77/177/13 72/178/13 69/179/13 84/180/13
f 73/181/20 71/182/20 70/183/20 88/184/20
f 84/185/36 69/139/36 71/142/36 73/186/36
f 65/170/37 81/187/37 76/188/37 66/171/37
f 81/187/38 82/189/38 75/190/38 76/188/38
f 82/189/39 83/191/39 74/192/39 75/190/39
f 83/191/40 84/185/40 73/186/40 74/192/40
f 66/193/26 76/194/26 85/195/26 68/196/26
f 76/194/27 75/197/27 86/198/27 85/195/27
f 75/199/8 74/200/8 87/201/8 86/202/8
f 74/203/28 73/181/28 88/184/28 87/204/28
f 67/205/13 80/206/13 81/207/13 65/208/13
f 80/206/13 79/209/13 82/210/13 81/207/13
f 79/209/13 78/211/13 83/212/13 82/210/13
f 78/211/13 77/177/13 84/180/13 83/212/13
f 72/174/41 77/213/41 88/214/41 70/175/41
f 77/213/42 78/215/42 87/216/42 88/214/42
f 78/215/43 79/217/43 86/218/43 87/216/43
f 79/217/44 80/167/44 85/168/44 86/218/44
f 96/219/13 91/220/13 90/221/13 89/222/13
f 93/223/13 92/224/13 95/225/13 94/226/13
f 67/227/10 65/228/10 95/229/10 92/230/10
f 69/231/14 72/232/14 96/233/14 89/234/14
f 72/174/3 64/173/3 91/235/3 96/236/3
f 65/170/1 58/169/1 94/237/1 95/238/1
f 60/140/1 69/139/1 89/239/1 90/240/1
f 58/152/14 62/151/14 93/241/14 94/242/14
f 99/243/45 97/244/45 109/245/45 112/246/45
f 100/247/46 104/248/46 103/249/46 99/250/46
f 104/251/47 102/252/47 107/253/47 105/254/47
f 102/255/48 98/256/48 97/257/48 101/258/48
f 97/259/8 99/260/8 103/261/8 101/262/8
f 102/263/13 104/264/13 100/265/13 98/266/13
f 105/254/49 107/253/49 108/267/49 106/268/49
f 103/269/50 104/251/50 105/254/50 106/268/50
f 102/252/51 101/270/51 108/267/51 107/253/51
f 101/270/52 103/269/52 106/268/52 108/267/52
f 110/271/53 111/272/53 112/246/53 109/245/53
f 98/273/54 100/274/54 111/272/54 110/271/54
f 100/274/55 99/243/55 112/246/55 111/272/55
f 97/244/56 98/273/56 110/271/56 109/245/56
