<?xml version="1.0" standalone="no"?>
<svg viewBox="0 0 200 200" xmlns="http://www.w3.org/2000/svg">
  <path fill="#FF0066" d="M22.9,-35.7C35.5,-27.6,55.5,-31,64.1,-25.4C72.6,-19.8,69.8,-5.1,62.9,5.6C56,16.3,45.1,23,38.1,35.3C31,47.6,27.7,65.5,17.9,74.7C8,84,-8.5,84.6,-24.4,81C-40.3,77.3,-55.6,69.3,-66.8,57.3C-77.9,45.3,-85,29.3,-82.7,14.7C-80.3,0.2,-68.6,-12.9,-62.1,-28.9C-55.6,-44.9,-54.4,-63.8,-44.9,-73.3C-35.4,-82.8,-17.7,-83,-6.3,-73.2C5.2,-63.5,10.3,-43.8,22.9,-35.7Z" transform="translate(100 100)" />
</svg>
